# MagicaVoxel @ Ephtracy

# group
o 

# material
mtllib road4-1-1.mtl
usemtl palette

# normals
vn -1 0 0
vn 1 0 0
vn 0 0 1
vn 0 0 -1
vn 0 -1 0
vn 0 1 0

# texcoords
vt 0.978516 0.5
vt 0.990234 0.5

# verts
v -2 0 2
v -2 0 1.1
v -2 0 0.9
v -2 0 0.7
v -2 0 0.5
v -2 0 0.3
v -2 0 0.0999999
v -2 0 -0.1
v -2 0 -0.3
v -2 0 -0.5
v -2 0 -0.7
v -2 0 -0.9
v -2 0 -1.1
v -2 0 -2
v -2 0.1 2
v -2 0.1 1.5
v -2 0.1 1.3
v -2 0.1 1.1
v -2 0.1 0.9
v -2 0.1 0.7
v -2 0.1 0.5
v -2 0.1 0.3
v -2 0.1 0.0999999
v -2 0.1 -0.1
v -2 0.1 -0.3
v -2 0.1 -0.5
v -2 0.1 -0.7
v -2 0.1 -0.9
v -2 0.1 -1.1
v -2 0.1 -1.3
v -2 0.1 -1.5
v -2 0.1 -2
v -2 0.2 1.5
v -2 0.2 1.3
v -2 0.2 -1.3
v -2 0.2 -1.5
v -1.5 0.1 2
v -1.5 0.1 1.5
v -1.5 0.1 -1.5
v -1.5 0.1 -2
v -1.5 0.2 2
v -1.5 0.2 1.5
v -1.5 0.2 -1.5
v -1.5 0.2 -2
v 1.3 0.1 2
v 1.3 0.1 1.6
v 1.3 0.1 1.3
v 1.3 0.1 -1.3
v 1.3 0.1 -1.6
v 1.3 0.1 -2
v 1.3 0.2 2
v 1.3 0.2 1.3
v 1.3 0.2 -1.3
v 1.3 0.2 -2
v -1.3 0.1 2
v -1.3 0.1 1.6
v -1.3 0.1 1.3
v -1.3 0.1 -1.3
v -1.3 0.1 -1.6
v -1.3 0.1 -2
v -1.3 0.2 2
v -1.3 0.2 1.3
v -1.3 0.2 -1.3
v -1.3 0.2 -2
v 1.5 0.1 2
v 1.5 0.1 1.5
v 1.5 0.1 -1.5
v 1.5 0.1 -2
v 1.5 0.2 2
v 1.5 0.2 1.5
v 1.5 0.2 -1.5
v 1.5 0.2 -2
v 2 0 2
v 2 0 1.1
v 2 0 0.9
v 2 0 0.7
v 2 0 0.5
v 2 0 0.3
v 2 0 0.0999999
v 2 0 -0.1
v 2 0 -0.3
v 2 0 -0.5
v 2 0 -0.7
v 2 0 -0.9
v 2 0 -1.1
v 2 0 -2
v 2 0.1 2
v 2 0.1 1.5
v 2 0.1 1.3
v 2 0.1 1.1
v 2 0.1 0.9
v 2 0.1 0.7
v 2 0.1 0.5
v 2 0.1 0.3
v 2 0.1 0.0999999
v 2 0.1 -0.1
v 2 0.1 -0.3
v 2 0.1 -0.5
v 2 0.1 -0.7
v 2 0.1 -0.9
v 2 0.1 -1.1
v 2 0.1 -1.3
v 2 0.1 -1.5
v 2 0.1 -2
v 2 0.2 1.5
v 2 0.2 1.3
v 2 0.2 -1.3
v 2 0.2 -1.5
v -2 0 2
v -2 0.1 2
v -1.5 0.1 2
v -1.5 0.2 2
v -1.3 0.1 2
v -1.3 0.2 2
v -1.1 0 2
v -1.1 0.1 2
v -0.9 0 2
v -0.9 0.1 2
v -0.7 0 2
v -0.7 0.1 2
v -0.5 0 2
v -0.5 0.1 2
v -0.3 0 2
v -0.3 0.1 2
v -0.0999999 0 2
v -0.0999999 0.1 2
v 0.1 0 2
v 0.1 0.1 2
v 0.3 0 2
v 0.3 0.1 2
v 0.5 0 2
v 0.5 0.1 2
v 0.7 0 2
v 0.7 0.1 2
v 0.9 0 2
v 0.9 0.1 2
v 1.1 0 2
v 1.1 0.1 2
v 1.3 0.1 2
v 1.3 0.2 2
v 1.5 0.1 2
v 1.5 0.2 2
v 2 0 2
v 2 0.1 2
v -2 0.1 1.5
v -2 0.2 1.5
v -1.5 0.1 1.5
v -1.5 0.2 1.5
v 1.5 0.1 1.5
v 1.5 0.2 1.5
v 2 0.1 1.5
v 2 0.2 1.5
v -2 0.1 -1.3
v -2 0.2 -1.3
v -1.6 0.1 -1.3
v -1.3 0.1 -1.3
v -1.3 0.2 -1.3
v 1.3 0.1 -1.3
v 1.3 0.2 -1.3
v 1.6 0.1 -1.3
v 2 0.1 -1.3
v 2 0.2 -1.3
v -2 0.1 1.3
v -2 0.2 1.3
v -1.6 0.1 1.3
v -1.3 0.1 1.3
v -1.3 0.2 1.3
v 1.3 0.1 1.3
v 1.3 0.2 1.3
v 1.6 0.1 1.3
v 2 0.1 1.3
v 2 0.2 1.3
v -2 0.1 -1.5
v -2 0.2 -1.5
v -1.5 0.1 -1.5
v -1.5 0.2 -1.5
v 1.5 0.1 -1.5
v 1.5 0.2 -1.5
v 2 0.1 -1.5
v 2 0.2 -1.5
v -2 0 -2
v -2 0.1 -2
v -1.5 0.1 -2
v -1.5 0.2 -2
v -1.3 0.1 -2
v -1.3 0.2 -2
v -1.1 0 -2
v -1.1 0.1 -2
v -0.9 0 -2
v -0.9 0.1 -2
v -0.7 0 -2
v -0.7 0.1 -2
v -0.5 0 -2
v -0.5 0.1 -2
v -0.3 0 -2
v -0.3 0.1 -2
v -0.0999999 0 -2
v -0.0999999 0.1 -2
v 0.1 0 -2
v 0.1 0.1 -2
v 0.3 0 -2
v 0.3 0.1 -2
v 0.5 0 -2
v 0.5 0.1 -2
v 0.7 0 -2
v 0.7 0.1 -2
v 0.9 0 -2
v 0.9 0.1 -2
v 1.1 0 -2
v 1.1 0.1 -2
v 1.3 0.1 -2
v 1.3 0.2 -2
v 1.5 0.1 -2
v 1.5 0.2 -2
v 2 0 -2
v 2 0.1 -2
v -2 0 2
v -1.1 0 2
v -0.9 0 2
v -0.7 0 2
v -0.5 0 2
v -0.3 0 2
v -0.0999999 0 2
v 0.1 0 2
v 0.3 0 2
v 0.5 0 2
v 0.7 0 2
v 0.9 0 2
v 1.1 0 2
v 2 0 2
v -1.3 0 1.6
v -1.1 0 1.6
v -0.9 0 1.6
v -0.7 0 1.6
v -0.5 0 1.6
v -0.3 0 1.6
v -0.0999999 0 1.6
v 0.1 0 1.6
v 0.3 0 1.6
v 0.5 0 1.6
v 0.7 0 1.6
v 0.9 0 1.6
v 1.1 0 1.6
v 1.3 0 1.6
v -1.6 0 1.3
v -1.3 0 1.3
v 1.3 0 1.3
v 1.6 0 1.3
v -2 0 1.1
v -1.6 0 1.1
v 1.6 0 1.1
v 2 0 1.1
v -2 0 0.9
v -1.6 0 0.9
v 1.6 0 0.9
v 2 0 0.9
v -2 0 0.7
v -1.6 0 0.7
v 1.6 0 0.7
v 2 0 0.7
v -2 0 0.5
v -1.6 0 0.5
v 1.6 0 0.5
v 2 0 0.5
v -2 0 0.3
v -1.6 0 0.3
v 1.6 0 0.3
v 2 0 0.3
v -2 0 0.0999999
v -1.6 0 0.0999999
v 1.6 0 0.0999999
v 2 0 0.0999999
v -2 0 -0.1
v -1.6 0 -0.1
v 1.6 0 -0.1
v 2 0 -0.1
v -2 0 -0.3
v -1.6 0 -0.3
v 1.6 0 -0.3
v 2 0 -0.3
v -2 0 -0.5
v -1.6 0 -0.5
v 1.6 0 -0.5
v 2 0 -0.5
v -2 0 -0.7
v -1.6 0 -0.7
v 1.6 0 -0.7
v 2 0 -0.7
v -2 0 -0.9
v -1.6 0 -0.9
v 1.6 0 -0.9
v 2 0 -0.9
v -2 0 -1.1
v -1.6 0 -1.1
v 1.6 0 -1.1
v 2 0 -1.1
v -1.6 0 -1.3
v -1.3 0 -1.3
v 1.3 0 -1.3
v 1.6 0 -1.3
v -1.3 0 -1.6
v -1.1 0 -1.6
v -0.9 0 -1.6
v -0.7 0 -1.6
v -0.5 0 -1.6
v -0.3 0 -1.6
v -0.0999999 0 -1.6
v 0.1 0 -1.6
v 0.3 0 -1.6
v 0.5 0 -1.6
v 0.7 0 -1.6
v 0.9 0 -1.6
v 1.1 0 -1.6
v 1.3 0 -1.6
v -2 0 -2
v -1.1 0 -2
v -0.9 0 -2
v -0.7 0 -2
v -0.5 0 -2
v -0.3 0 -2
v -0.0999999 0 -2
v 0.1 0 -2
v 0.3 0 -2
v 0.5 0 -2
v 0.7 0 -2
v 0.9 0 -2
v 1.1 0 -2
v 2 0 -2
v -2 0.1 2
v -1.5 0.1 2
v -1.3 0.1 2
v -1.1 0.1 2
v -0.9 0.1 2
v -0.7 0.1 2
v -0.5 0.1 2
v -0.3 0.1 2
v -0.0999999 0.1 2
v 0.1 0.1 2
v 0.3 0.1 2
v 0.5 0.1 2
v 0.7 0.1 2
v 0.9 0.1 2
v 1.1 0.1 2
v 1.3 0.1 2
v 1.5 0.1 2
v 2 0.1 2
v -1.3 0.1 1.6
v -1.1 0.1 1.6
v -0.9 0.1 1.6
v -0.7 0.1 1.6
v -0.5 0.1 1.6
v -0.3 0.1 1.6
v -0.0999999 0.1 1.6
v 0.1 0.1 1.6
v 0.3 0.1 1.6
v 0.5 0.1 1.6
v 0.7 0.1 1.6
v 0.9 0.1 1.6
v 1.1 0.1 1.6
v 1.3 0.1 1.6
v -2 0.1 1.5
v -1.5 0.1 1.5
v 1.5 0.1 1.5
v 2 0.1 1.5
v -2 0.1 1.3
v -1.6 0.1 1.3
v -1.3 0.1 1.3
v 1.3 0.1 1.3
v 1.6 0.1 1.3
v 2 0.1 1.3
v -2 0.1 1.1
v -1.6 0.1 1.1
v 1.6 0.1 1.1
v 2 0.1 1.1
v -2 0.1 0.9
v -1.6 0.1 0.9
v 1.6 0.1 0.9
v 2 0.1 0.9
v -2 0.1 0.7
v -1.6 0.1 0.7
v 1.6 0.1 0.7
v 2 0.1 0.7
v -2 0.1 0.5
v -1.6 0.1 0.5
v 1.6 0.1 0.5
v 2 0.1 0.5
v -2 0.1 0.3
v -1.6 0.1 0.3
v 1.6 0.1 0.3
v 2 0.1 0.3
v -2 0.1 0.0999999
v -1.6 0.1 0.0999999
v 1.6 0.1 0.0999999
v 2 0.1 0.0999999
v -2 0.1 -0.1
v -1.6 0.1 -0.1
v 1.6 0.1 -0.1
v 2 0.1 -0.1
v -2 0.1 -0.3
v -1.6 0.1 -0.3
v 1.6 0.1 -0.3
v 2 0.1 -0.3
v -2 0.1 -0.5
v -1.6 0.1 -0.5
v 1.6 0.1 -0.5
v 2 0.1 -0.5
v -2 0.1 -0.7
v -1.6 0.1 -0.7
v 1.6 0.1 -0.7
v 2 0.1 -0.7
v -2 0.1 -0.9
v -1.6 0.1 -0.9
v 1.6 0.1 -0.9
v 2 0.1 -0.9
v -2 0.1 -1.1
v -1.6 0.1 -1.1
v 1.6 0.1 -1.1
v 2 0.1 -1.1
v -2 0.1 -1.3
v -1.6 0.1 -1.3
v -1.3 0.1 -1.3
v 1.3 0.1 -1.3
v 1.6 0.1 -1.3
v 2 0.1 -1.3
v -2 0.1 -1.5
v -1.5 0.1 -1.5
v 1.5 0.1 -1.5
v 2 0.1 -1.5
v -1.3 0.1 -1.6
v -1.1 0.1 -1.6
v -0.9 0.1 -1.6
v -0.7 0.1 -1.6
v -0.5 0.1 -1.6
v -0.3 0.1 -1.6
v -0.0999999 0.1 -1.6
v 0.1 0.1 -1.6
v 0.3 0.1 -1.6
v 0.5 0.1 -1.6
v 0.7 0.1 -1.6
v 0.9 0.1 -1.6
v 1.1 0.1 -1.6
v 1.3 0.1 -1.6
v -2 0.1 -2
v -1.5 0.1 -2
v -1.3 0.1 -2
v -1.1 0.1 -2
v -0.9 0.1 -2
v -0.7 0.1 -2
v -0.5 0.1 -2
v -0.3 0.1 -2
v -0.0999999 0.1 -2
v 0.1 0.1 -2
v 0.3 0.1 -2
v 0.5 0.1 -2
v 0.7 0.1 -2
v 0.9 0.1 -2
v 1.1 0.1 -2
v 1.3 0.1 -2
v 1.5 0.1 -2
v 2 0.1 -2
v -1.5 0.2 2
v -1.3 0.2 2
v 1.3 0.2 2
v 1.5 0.2 2
v -2 0.2 1.5
v -1.5 0.2 1.5
v 1.5 0.2 1.5
v 2 0.2 1.5
v -2 0.2 1.3
v -1.3 0.2 1.3
v 1.3 0.2 1.3
v 2 0.2 1.3
v -2 0.2 -1.3
v -1.3 0.2 -1.3
v 1.3 0.2 -1.3
v 2 0.2 -1.3
v -2 0.2 -1.5
v -1.5 0.2 -1.5
v 1.5 0.2 -1.5
v 2 0.2 -1.5
v -1.5 0.2 -2
v -1.3 0.2 -2
v 1.3 0.2 -2
v 1.5 0.2 -2

# faces
f 15/1/1 2/1/1 1/1/1
f 16/1/1 2/1/1 15/1/1
f 17/1/1 2/1/1 16/1/1
f 18/2/1 3/2/1 2/2/1
f 18/1/1 2/1/1 17/1/1
f 19/1/1 4/1/1 3/1/1
f 19/2/1 3/2/1 18/2/1
f 20/2/1 5/2/1 4/2/1
f 20/1/1 4/1/1 19/1/1
f 21/1/1 6/1/1 5/1/1
f 21/2/1 5/2/1 20/2/1
f 22/2/1 7/2/1 6/2/1
f 22/1/1 6/1/1 21/1/1
f 23/1/1 8/1/1 7/1/1
f 23/2/1 7/2/1 22/2/1
f 24/2/1 9/2/1 8/2/1
f 24/1/1 8/1/1 23/1/1
f 25/1/1 10/1/1 9/1/1
f 25/2/1 9/2/1 24/2/1
f 26/2/1 11/2/1 10/2/1
f 26/1/1 10/1/1 25/1/1
f 27/1/1 12/1/1 11/1/1
f 27/2/1 11/2/1 26/2/1
f 28/2/1 13/2/1 12/2/1
f 28/1/1 12/1/1 27/1/1
f 29/1/1 14/1/1 13/1/1
f 29/2/1 13/2/1 28/2/1
f 30/1/1 14/1/1 29/1/1
f 31/1/1 14/1/1 30/1/1
f 32/1/1 14/1/1 31/1/1
f 33/1/1 17/1/1 16/1/1
f 34/1/1 17/1/1 33/1/1
f 35/1/1 31/1/1 30/1/1
f 36/1/1 31/1/1 35/1/1
f 41/1/1 38/1/1 37/1/1
f 42/1/1 38/1/1 41/1/1
f 43/1/1 40/1/1 39/1/1
f 44/1/1 40/1/1 43/1/1
f 51/1/1 46/1/1 45/1/1
f 51/1/1 47/1/1 46/1/1
f 52/1/1 47/1/1 51/1/1
f 53/1/1 50/1/1 49/1/1
f 53/1/1 49/1/1 48/1/1
f 54/1/1 50/1/1 53/1/1
f 55/1/2 56/1/2 61/1/2
f 56/1/2 57/1/2 61/1/2
f 61/1/2 57/1/2 62/1/2
f 59/1/2 60/1/2 63/1/2
f 58/1/2 59/1/2 63/1/2
f 63/1/2 60/1/2 64/1/2
f 65/1/2 66/1/2 69/1/2
f 69/1/2 66/1/2 70/1/2
f 67/1/2 68/1/2 71/1/2
f 71/1/2 68/1/2 72/1/2
f 73/1/2 74/1/2 87/1/2
f 87/1/2 74/1/2 88/1/2
f 88/1/2 74/1/2 89/1/2
f 74/2/2 75/2/2 90/2/2
f 89/1/2 74/1/2 90/1/2
f 75/1/2 76/1/2 91/1/2
f 90/2/2 75/2/2 91/2/2
f 76/2/2 77/2/2 92/2/2
f 91/1/2 76/1/2 92/1/2
f 77/1/2 78/1/2 93/1/2
f 92/2/2 77/2/2 93/2/2
f 78/2/2 79/2/2 94/2/2
f 93/1/2 78/1/2 94/1/2
f 79/1/2 80/1/2 95/1/2
f 94/2/2 79/2/2 95/2/2
f 80/2/2 81/2/2 96/2/2
f 95/1/2 80/1/2 96/1/2
f 81/1/2 82/1/2 97/1/2
f 96/2/2 81/2/2 97/2/2
f 82/2/2 83/2/2 98/2/2
f 97/1/2 82/1/2 98/1/2
f 83/1/2 84/1/2 99/1/2
f 98/2/2 83/2/2 99/2/2
f 84/2/2 85/2/2 100/2/2
f 99/1/2 84/1/2 100/1/2
f 85/1/2 86/1/2 101/1/2
f 100/2/2 85/2/2 101/2/2
f 101/1/2 86/1/2 102/1/2
f 102/1/2 86/1/2 103/1/2
f 103/1/2 86/1/2 104/1/2
f 88/1/2 89/1/2 105/1/2
f 105/1/2 89/1/2 106/1/2
f 102/1/2 103/1/2 107/1/2
f 107/1/2 103/1/2 108/1/2
f 111/1/3 110/1/3 109/1/3
f 113/1/3 111/1/3 109/1/3
f 113/1/3 112/1/3 111/1/3
f 114/1/3 112/1/3 113/1/3
f 115/1/3 113/1/3 109/1/3
f 116/1/3 113/1/3 115/1/3
f 117/2/3 116/2/3 115/2/3
f 118/2/3 116/2/3 117/2/3
f 119/1/3 118/1/3 117/1/3
f 120/1/3 118/1/3 119/1/3
f 121/2/3 120/2/3 119/2/3
f 122/2/3 120/2/3 121/2/3
f 123/1/3 122/1/3 121/1/3
f 124/1/3 122/1/3 123/1/3
f 125/2/3 124/2/3 123/2/3
f 126/2/3 124/2/3 125/2/3
f 127/1/3 126/1/3 125/1/3
f 128/1/3 126/1/3 127/1/3
f 129/2/3 128/2/3 127/2/3
f 130/2/3 128/2/3 129/2/3
f 131/1/3 130/1/3 129/1/3
f 132/1/3 130/1/3 131/1/3
f 133/2/3 132/2/3 131/2/3
f 134/2/3 132/2/3 133/2/3
f 135/1/3 134/1/3 133/1/3
f 136/1/3 134/1/3 135/1/3
f 137/2/3 136/2/3 135/2/3
f 138/2/3 136/2/3 137/2/3
f 139/1/3 138/1/3 137/1/3
f 141/1/3 139/1/3 137/1/3
f 141/1/3 140/1/3 139/1/3
f 142/1/3 140/1/3 141/1/3
f 143/1/3 141/1/3 137/1/3
f 144/1/3 141/1/3 143/1/3
f 147/1/3 146/1/3 145/1/3
f 148/1/3 146/1/3 147/1/3
f 151/1/3 150/1/3 149/1/3
f 152/1/3 150/1/3 151/1/3
f 155/1/3 154/1/3 153/1/3
f 156/1/3 154/1/3 155/1/3
f 157/1/3 154/1/3 156/1/3
f 160/1/3 159/1/3 158/1/3
f 161/1/3 159/1/3 160/1/3
f 162/1/3 159/1/3 161/1/3
f 163/1/4 164/1/4 165/1/4
f 165/1/4 164/1/4 166/1/4
f 166/1/4 164/1/4 167/1/4
f 168/1/4 169/1/4 170/1/4
f 170/1/4 169/1/4 171/1/4
f 171/1/4 169/1/4 172/1/4
f 173/1/4 174/1/4 175/1/4
f 175/1/4 174/1/4 176/1/4
f 177/1/4 178/1/4 179/1/4
f 179/1/4 178/1/4 180/1/4
f 181/1/4 182/1/4 183/1/4
f 181/1/4 183/1/4 185/1/4
f 183/1/4 184/1/4 185/1/4
f 185/1/4 184/1/4 186/1/4
f 181/1/4 185/1/4 187/1/4
f 187/1/4 185/1/4 188/1/4
f 187/2/4 188/2/4 189/2/4
f 189/2/4 188/2/4 190/2/4
f 189/1/4 190/1/4 191/1/4
f 191/1/4 190/1/4 192/1/4
f 191/2/4 192/2/4 193/2/4
f 193/2/4 192/2/4 194/2/4
f 193/1/4 194/1/4 195/1/4
f 195/1/4 194/1/4 196/1/4
f 195/2/4 196/2/4 197/2/4
f 197/2/4 196/2/4 198/2/4
f 197/1/4 198/1/4 199/1/4
f 199/1/4 198/1/4 200/1/4
f 199/2/4 200/2/4 201/2/4
f 201/2/4 200/2/4 202/2/4
f 201/1/4 202/1/4 203/1/4
f 203/1/4 202/1/4 204/1/4
f 203/2/4 204/2/4 205/2/4
f 205/2/4 204/2/4 206/2/4
f 205/1/4 206/1/4 207/1/4
f 207/1/4 206/1/4 208/1/4
f 207/2/4 208/2/4 209/2/4
f 209/2/4 208/2/4 210/2/4
f 209/1/4 210/1/4 211/1/4
f 209/1/4 211/1/4 213/1/4
f 211/1/4 212/1/4 213/1/4
f 213/1/4 212/1/4 214/1/4
f 209/1/4 213/1/4 215/1/4
f 215/1/4 213/1/4 216/1/4
f 231/1/5 218/1/5 217/1/5
f 232/2/5 219/2/5 218/2/5
f 232/1/5 218/1/5 231/1/5
f 233/1/5 220/1/5 219/1/5
f 233/2/5 219/2/5 232/2/5
f 234/2/5 221/2/5 220/2/5
f 234/1/5 220/1/5 233/1/5
f 235/1/5 222/1/5 221/1/5
f 235/2/5 221/2/5 234/2/5
f 236/2/5 223/2/5 222/2/5
f 236/1/5 222/1/5 235/1/5
f 237/1/5 224/1/5 223/1/5
f 237/2/5 223/2/5 236/2/5
f 238/2/5 225/2/5 224/2/5
f 238/1/5 224/1/5 237/1/5
f 239/1/5 226/1/5 225/1/5
f 239/2/5 225/2/5 238/2/5
f 240/2/5 227/2/5 226/2/5
f 240/1/5 226/1/5 239/1/5
f 241/1/5 228/1/5 227/1/5
f 241/2/5 227/2/5 240/2/5
f 242/2/5 229/2/5 228/2/5
f 242/1/5 228/1/5 241/1/5
f 243/1/5 230/1/5 229/1/5
f 243/2/5 229/2/5 242/2/5
f 244/1/5 230/1/5 243/1/5
f 245/1/5 231/1/5 217/1/5
f 246/2/5 242/2/5 241/2/5
f 246/1/5 231/1/5 245/1/5
f 246/2/5 232/2/5 231/2/5
f 246/2/5 244/2/5 243/2/5
f 246/2/5 243/2/5 242/2/5
f 246/2/5 241/2/5 240/2/5
f 246/2/5 240/2/5 239/2/5
f 246/2/5 239/2/5 238/2/5
f 246/2/5 238/2/5 237/2/5
f 246/2/5 237/2/5 236/2/5
f 246/2/5 236/2/5 235/2/5
f 246/2/5 235/2/5 234/2/5
f 246/2/5 234/2/5 233/2/5
f 246/2/5 233/2/5 232/2/5
f 247/1/5 230/1/5 244/1/5
f 247/2/5 244/2/5 246/2/5
f 248/1/5 230/1/5 247/1/5
f 249/1/5 245/1/5 217/1/5
f 250/2/5 246/2/5 245/2/5
f 250/1/5 245/1/5 249/1/5
f 250/2/5 247/2/5 246/2/5
f 250/2/5 248/2/5 247/2/5
f 251/1/5 230/1/5 248/1/5
f 251/2/5 248/2/5 250/2/5
f 252/1/5 230/1/5 251/1/5
f 253/2/5 250/2/5 249/2/5
f 253/2/5 251/2/5 250/2/5
f 253/2/5 252/2/5 251/2/5
f 254/2/5 252/2/5 253/2/5
f 255/2/5 252/2/5 254/2/5
f 256/2/5 252/2/5 255/2/5
f 257/1/5 254/1/5 253/1/5
f 258/2/5 255/2/5 254/2/5
f 258/1/5 254/1/5 257/1/5
f 259/1/5 256/1/5 255/1/5
f 259/2/5 255/2/5 258/2/5
f 260/1/5 256/1/5 259/1/5
f 261/2/5 258/2/5 257/2/5
f 261/2/5 259/2/5 258/2/5
f 261/2/5 260/2/5 259/2/5
f 262/2/5 260/2/5 261/2/5
f 263/2/5 260/2/5 262/2/5
f 264/2/5 260/2/5 263/2/5
f 265/1/5 262/1/5 261/1/5
f 266/2/5 263/2/5 262/2/5
f 266/1/5 262/1/5 265/1/5
f 267/1/5 264/1/5 263/1/5
f 267/2/5 263/2/5 266/2/5
f 268/1/5 264/1/5 267/1/5
f 269/2/5 266/2/5 265/2/5
f 269/2/5 267/2/5 266/2/5
f 269/2/5 268/2/5 267/2/5
f 270/2/5 268/2/5 269/2/5
f 271/2/5 268/2/5 270/2/5
f 272/2/5 268/2/5 271/2/5
f 273/1/5 270/1/5 269/1/5
f 274/2/5 271/2/5 270/2/5
f 274/1/5 270/1/5 273/1/5
f 275/1/5 272/1/5 271/1/5
f 275/2/5 271/2/5 274/2/5
f 276/1/5 272/1/5 275/1/5
f 277/2/5 274/2/5 273/2/5
f 277/2/5 275/2/5 274/2/5
f 277/2/5 276/2/5 275/2/5
f 278/2/5 276/2/5 277/2/5
f 279/2/5 276/2/5 278/2/5
f 280/2/5 276/2/5 279/2/5
f 281/1/5 278/1/5 277/1/5
f 282/2/5 279/2/5 278/2/5
f 282/1/5 278/1/5 281/1/5
f 283/1/5 280/1/5 279/1/5
f 283/2/5 279/2/5 282/2/5
f 284/1/5 280/1/5 283/1/5
f 285/2/5 282/2/5 281/2/5
f 285/2/5 283/2/5 282/2/5
f 285/2/5 284/2/5 283/2/5
f 286/2/5 284/2/5 285/2/5
f 287/2/5 284/2/5 286/2/5
f 288/2/5 284/2/5 287/2/5
f 289/1/5 286/1/5 285/1/5
f 290/2/5 287/2/5 286/2/5
f 290/1/5 286/1/5 289/1/5
f 291/1/5 288/1/5 287/1/5
f 291/2/5 287/2/5 290/2/5
f 292/1/5 288/1/5 291/1/5
f 293/2/5 290/2/5 289/2/5
f 293/2/5 291/2/5 290/2/5
f 293/2/5 292/2/5 291/2/5
f 294/2/5 292/2/5 293/2/5
f 295/2/5 292/2/5 294/2/5
f 296/2/5 292/2/5 295/2/5
f 297/1/5 294/1/5 293/1/5
f 297/2/5 295/2/5 294/2/5
f 298/2/5 295/2/5 297/2/5
f 299/2/5 295/2/5 298/2/5
f 300/1/5 296/1/5 295/1/5
f 300/2/5 295/2/5 299/2/5
f 301/2/5 299/2/5 298/2/5
f 301/1/5 298/1/5 297/1/5
f 302/2/5 299/2/5 301/2/5
f 303/2/5 299/2/5 302/2/5
f 304/2/5 299/2/5 303/2/5
f 305/2/5 299/2/5 304/2/5
f 306/2/5 299/2/5 305/2/5
f 307/2/5 299/2/5 306/2/5
f 308/2/5 299/2/5 307/2/5
f 309/2/5 299/2/5 308/2/5
f 310/2/5 299/2/5 309/2/5
f 311/2/5 299/2/5 310/2/5
f 312/2/5 299/2/5 311/2/5
f 313/2/5 299/2/5 312/2/5
f 314/1/5 300/1/5 299/1/5
f 314/2/5 299/2/5 313/2/5
f 315/1/5 297/1/5 293/1/5
f 315/1/5 301/1/5 297/1/5
f 315/1/5 302/1/5 301/1/5
f 316/2/5 303/2/5 302/2/5
f 316/1/5 302/1/5 315/1/5
f 317/1/5 304/1/5 303/1/5
f 317/2/5 303/2/5 316/2/5
f 318/2/5 305/2/5 304/2/5
f 318/1/5 304/1/5 317/1/5
f 319/1/5 306/1/5 305/1/5
f 319/2/5 305/2/5 318/2/5
f 320/2/5 307/2/5 306/2/5
f 320/1/5 306/1/5 319/1/5
f 321/1/5 308/1/5 307/1/5
f 321/2/5 307/2/5 320/2/5
f 322/2/5 309/2/5 308/2/5
f 322/1/5 308/1/5 321/1/5
f 323/1/5 310/1/5 309/1/5
f 323/2/5 309/2/5 322/2/5
f 324/2/5 311/2/5 310/2/5
f 324/1/5 310/1/5 323/1/5
f 325/1/5 312/1/5 311/1/5
f 325/2/5 311/2/5 324/2/5
f 326/2/5 313/2/5 312/2/5
f 326/1/5 312/1/5 325/1/5
f 327/1/5 314/1/5 313/1/5
f 327/2/5 313/2/5 326/2/5
f 328/1/5 296/1/5 300/1/5
f 328/1/5 314/1/5 327/1/5
f 328/1/5 300/1/5 314/1/5
f 331/1/6 332/1/6 347/1/6
f 332/2/6 333/2/6 348/2/6
f 347/1/6 332/1/6 348/1/6
f 333/1/6 334/1/6 349/1/6
f 348/2/6 333/2/6 349/2/6
f 334/2/6 335/2/6 350/2/6
f 349/1/6 334/1/6 350/1/6
f 335/1/6 336/1/6 351/1/6
f 350/2/6 335/2/6 351/2/6
f 336/2/6 337/2/6 352/2/6
f 351/1/6 336/1/6 352/1/6
f 337/1/6 338/1/6 353/1/6
f 352/2/6 337/2/6 353/2/6
f 338/2/6 339/2/6 354/2/6
f 353/1/6 338/1/6 354/1/6
f 339/1/6 340/1/6 355/1/6
f 354/2/6 339/2/6 355/2/6
f 340/2/6 341/2/6 356/2/6
f 355/1/6 340/1/6 356/1/6
f 341/1/6 342/1/6 357/1/6
f 356/2/6 341/2/6 357/2/6
f 342/2/6 343/2/6 358/2/6
f 357/1/6 342/1/6 358/1/6
f 343/1/6 344/1/6 359/1/6
f 358/2/6 343/2/6 359/2/6
f 359/1/6 344/1/6 360/1/6
f 329/1/6 330/1/6 361/1/6
f 361/1/6 330/1/6 362/1/6
f 345/1/6 346/1/6 363/1/6
f 363/1/6 346/1/6 364/1/6
f 347/2/6 348/2/6 367/2/6
f 348/2/6 349/2/6 367/2/6
f 349/2/6 350/2/6 367/2/6
f 359/2/6 360/2/6 367/2/6
f 358/2/6 359/2/6 367/2/6
f 357/2/6 358/2/6 367/2/6
f 356/2/6 357/2/6 367/2/6
f 355/2/6 356/2/6 367/2/6
f 354/2/6 355/2/6 367/2/6
f 353/2/6 354/2/6 367/2/6
f 352/2/6 353/2/6 367/2/6
f 351/2/6 352/2/6 367/2/6
f 350/2/6 351/2/6 367/2/6
f 367/2/6 360/2/6 368/2/6
f 365/1/6 366/1/6 371/1/6
f 366/2/6 367/2/6 372/2/6
f 371/1/6 366/1/6 372/1/6
f 367/2/6 368/2/6 372/2/6
f 368/2/6 369/2/6 372/2/6
f 369/1/6 370/1/6 373/1/6
f 372/2/6 369/2/6 373/2/6
f 373/1/6 370/1/6 374/1/6
f 371/2/6 372/2/6 375/2/6
f 372/2/6 373/2/6 375/2/6
f 373/2/6 374/2/6 375/2/6
f 375/2/6 374/2/6 376/2/6
f 376/2/6 374/2/6 377/2/6
f 377/2/6 374/2/6 378/2/6
f 375/1/6 376/1/6 379/1/6
f 376/2/6 377/2/6 380/2/6
f 379/1/6 376/1/6 380/1/6
f 377/1/6 378/1/6 381/1/6
f 380/2/6 377/2/6 381/2/6
f 381/1/6 378/1/6 382/1/6
f 379/2/6 380/2/6 383/2/6
f 380/2/6 381/2/6 383/2/6
f 381/2/6 382/2/6 383/2/6
f 383/2/6 382/2/6 384/2/6
f 384/2/6 382/2/6 385/2/6
f 385/2/6 382/2/6 386/2/6
f 383/1/6 384/1/6 387/1/6
f 384/2/6 385/2/6 388/2/6
f 387/1/6 384/1/6 388/1/6
f 385/1/6 386/1/6 389/1/6
f 388/2/6 385/2/6 389/2/6
f 389/1/6 386/1/6 390/1/6
f 387/2/6 388/2/6 391/2/6
f 388/2/6 389/2/6 391/2/6
f 389/2/6 390/2/6 391/2/6
f 391/2/6 390/2/6 392/2/6
f 392/2/6 390/2/6 393/2/6
f 393/2/6 390/2/6 394/2/6
f 391/1/6 392/1/6 395/1/6
f 392/2/6 393/2/6 396/2/6
f 395/1/6 392/1/6 396/1/6
f 393/1/6 394/1/6 397/1/6
f 396/2/6 393/2/6 397/2/6
f 397/1/6 394/1/6 398/1/6
f 395/2/6 396/2/6 399/2/6
f 396/2/6 397/2/6 399/2/6
f 397/2/6 398/2/6 399/2/6
f 399/2/6 398/2/6 400/2/6
f 400/2/6 398/2/6 401/2/6
f 401/2/6 398/2/6 402/2/6
f 399/1/6 400/1/6 403/1/6
f 400/2/6 401/2/6 404/2/6
f 403/1/6 400/1/6 404/1/6
f 401/1/6 402/1/6 405/1/6
f 404/2/6 401/2/6 405/2/6
f 405/1/6 402/1/6 406/1/6
f 403/2/6 404/2/6 407/2/6
f 404/2/6 405/2/6 407/2/6
f 405/2/6 406/2/6 407/2/6
f 407/2/6 406/2/6 408/2/6
f 408/2/6 406/2/6 409/2/6
f 409/2/6 406/2/6 410/2/6
f 407/1/6 408/1/6 411/1/6
f 408/2/6 409/2/6 412/2/6
f 411/1/6 408/1/6 412/1/6
f 409/1/6 410/1/6 413/1/6
f 412/2/6 409/2/6 413/2/6
f 413/1/6 410/1/6 414/1/6
f 411/2/6 412/2/6 415/2/6
f 412/2/6 413/2/6 415/2/6
f 413/2/6 414/2/6 415/2/6
f 415/2/6 414/2/6 416/2/6
f 416/2/6 414/2/6 417/2/6
f 417/2/6 414/2/6 418/2/6
f 415/1/6 416/1/6 419/1/6
f 416/2/6 417/2/6 420/2/6
f 419/1/6 416/1/6 420/1/6
f 420/2/6 417/2/6 421/2/6
f 421/2/6 417/2/6 422/2/6
f 417/1/6 418/1/6 423/1/6
f 422/2/6 417/2/6 423/2/6
f 423/1/6 418/1/6 424/1/6
f 421/2/6 422/2/6 429/2/6
f 429/2/6 422/2/6 430/2/6
f 430/2/6 422/2/6 431/2/6
f 431/2/6 422/2/6 432/2/6
f 432/2/6 422/2/6 433/2/6
f 433/2/6 422/2/6 434/2/6
f 434/2/6 422/2/6 435/2/6
f 435/2/6 422/2/6 436/2/6
f 436/2/6 422/2/6 437/2/6
f 437/2/6 422/2/6 438/2/6
f 438/2/6 422/2/6 439/2/6
f 439/2/6 422/2/6 440/2/6
f 440/2/6 422/2/6 441/2/6
f 441/2/6 422/2/6 442/2/6
f 425/1/6 426/1/6 443/1/6
f 443/1/6 426/1/6 444/1/6
f 429/1/6 430/1/6 445/1/6
f 430/2/6 431/2/6 446/2/6
f 445/1/6 430/1/6 446/1/6
f 431/1/6 432/1/6 447/1/6
f 446/2/6 431/2/6 447/2/6
f 432/2/6 433/2/6 448/2/6
f 447/1/6 432/1/6 448/1/6
f 433/1/6 434/1/6 449/1/6
f 448/2/6 433/2/6 449/2/6
f 434/2/6 435/2/6 450/2/6
f 449/1/6 434/1/6 450/1/6
f 435/1/6 436/1/6 451/1/6
f 450/2/6 435/2/6 451/2/6
f 436/2/6 437/2/6 452/2/6
f 451/1/6 436/1/6 452/1/6
f 437/1/6 438/1/6 453/1/6
f 452/2/6 437/2/6 453/2/6
f 438/2/6 439/2/6 454/2/6
f 453/1/6 438/1/6 454/1/6
f 439/1/6 440/1/6 455/1/6
f 454/2/6 439/2/6 455/2/6
f 440/2/6 441/2/6 456/2/6
f 455/1/6 440/1/6 456/1/6
f 441/1/6 442/1/6 457/1/6
f 456/2/6 441/2/6 457/2/6
f 457/1/6 442/1/6 458/1/6
f 427/1/6 428/1/6 459/1/6
f 459/1/6 428/1/6 460/1/6
f 461/1/6 462/1/6 466/1/6
f 463/1/6 464/1/6 467/1/6
f 465/1/6 466/1/6 469/1/6
f 466/1/6 462/1/6 470/1/6
f 469/1/6 466/1/6 470/1/6
f 467/1/6 468/1/6 471/1/6
f 463/1/6 467/1/6 471/1/6
f 471/1/6 468/1/6 472/1/6
f 473/1/6 474/1/6 477/1/6
f 477/1/6 474/1/6 478/1/6
f 475/1/6 476/1/6 479/1/6
f 479/1/6 476/1/6 480/1/6
f 478/1/6 474/1/6 481/1/6
f 481/1/6 474/1/6 482/1/6
f 475/1/6 479/1/6 483/1/6
f 483/1/6 479/1/6 484/1/6
