# MagicaVoxel @ Ephtracy

# group
o 

# material
mtllib road2-1.mtl
usemtl palette

# normals
vn -1 0 0
vn 1 0 0
vn 0 0 1
vn 0 0 -1
vn 0 -1 0
vn 0 1 0

# texcoords
vt 0.00976562 0.5
vt 0.958984 0.5
vt 0.970703 0.5
vt 0.978516 0.5
vt 0.990234 0.5

# verts
v -2 0 2
v -2 0 1.3
v -2 0 -1.3
v -2 0 -2
v -2 0.1 2
v -2 0.1 1.5
v -2 0.1 1.3
v -2 0.1 -1.3
v -2 0.1 -1.5
v -2 0.1 -2
v -2 0.2 1.5
v -2 0.2 1.3
v -2 0.2 -1.3
v -2 0.2 -1.5
v -1.5 0.1 2
v -1.5 0.1 1.5
v -1.5 0.2 2
v -1.5 0.2 1.5
v -0.2 2.9 -0.7
v -0.2 2.9 -1.1
v -0.2 3 -0.7
v -0.2 3 -1.1
v -0.0999999 0.1 -1.6
v -0.0999999 0.1 -1.8
v -0.0999999 2.8 -0.8
v -0.0999999 2.8 -1
v -0.0999999 2.9 -0.8
v -0.0999999 2.9 -1
v -0.0999999 3 -0.7
v -0.0999999 3 -1.1
v -0.0999999 3 -1.6
v -0.0999999 3.1 -0.7
v -0.0999999 3.1 -1.8
v 0.7 2.9 0.2
v 0.7 2.9 -0.2
v 0.7 3 0.2
v 0.7 3 0.0999999
v 0.7 3 -0.1
v 0.7 3 -0.2
v 0.7 3.1 0.0999999
v 0.7 3.1 -0.1
v 0.8 2.8 0.0999999
v 0.8 2.8 -0.1
v 0.8 2.9 0.0999999
v 0.8 2.9 -0.1
v 1.3 0.1 2
v 1.3 0.1 -1.3
v 1.3 0.2 2
v 1.3 0.2 -1.3
v 1.6 0.1 0.0999999
v 1.6 0.1 -0.1
v 1.6 3 0.0999999
v 1.6 3 -0.1
v -1.3 0.1 2
v -1.3 0.1 1.3
v -1.3 0.2 2
v -1.3 0.2 1.3
v 0.1 0.1 -1.6
v 0.1 0.1 -1.8
v 0.1 2.8 -0.8
v 0.1 2.8 -1
v 0.1 2.9 -0.8
v 0.1 2.9 -1
v 0.1 3 -0.7
v 0.1 3 -1.1
v 0.1 3 -1.6
v 0.1 3.1 -0.7
v 0.1 3.1 -1.8
v 0.2 2.9 -0.7
v 0.2 2.9 -1.1
v 0.2 3 -0.7
v 0.2 3 -1.1
v 1 2.8 0.0999999
v 1 2.8 -0.1
v 1 2.9 0.0999999
v 1 2.9 -0.1
v 1.1 2.9 0.2
v 1.1 2.9 -0.2
v 1.1 3 0.2
v 1.1 3 0.0999999
v 1.1 3 -0.1
v 1.1 3 -0.2
v 1.5 0.1 2
v 1.5 0.1 -1.5
v 1.5 0.2 2
v 1.5 0.2 -1.5
v 1.8 0.1 0.0999999
v 1.8 0.1 -0.1
v 1.8 3.1 0.0999999
v 1.8 3.1 -0.1
v 2 0 2
v 2 0 -2
v 2 0.1 2
v 2 0.1 -2
v -2 0 2
v -2 0.1 2
v -1.5 0.1 2
v -1.5 0.2 2
v -1.3 0 2
v -1.3 0.1 2
v -1.3 0.2 2
v 1.3 0 2
v 1.3 0.1 2
v 1.3 0.2 2
v 1.5 0.1 2
v 1.5 0.2 2
v 2 0 2
v 2 0.1 2
v -2 0.1 1.5
v -2 0.2 1.5
v -1.5 0.1 1.5
v -1.5 0.2 1.5
v 0.7 2.9 0.2
v 0.7 3 0.2
v 1.1 2.9 0.2
v 1.1 3 0.2
v 0.7 3 0.0999999
v 0.7 3.1 0.0999999
v 0.8 2.8 0.0999999
v 0.8 2.9 0.0999999
v 1 2.8 0.0999999
v 1 2.9 0.0999999
v 1.1 3 0.0999999
v 1.6 0.1 0.0999999
v 1.6 3 0.0999999
v 1.8 0.1 0.0999999
v 1.8 3.1 0.0999999
v -0.2 2.9 -0.7
v -0.2 3 -0.7
v -0.0999999 3 -0.7
v -0.0999999 3.1 -0.7
v 0.1 3 -0.7
v 0.1 3.1 -0.7
v 0.2 2.9 -0.7
v 0.2 3 -0.7
v -0.0999999 2.8 -0.8
v -0.0999999 2.9 -0.8
v 0.1 2.8 -0.8
v 0.1 2.9 -0.8
v -2 0.1 -1.3
v -2 0.2 -1.3
v 1.3 0.1 -1.3
v 1.3 0.2 -1.3
v -0.0999999 0.1 -1.6
v -0.0999999 3 -1.6
v 0.1 0.1 -1.6
v 0.1 3 -1.6
v -2 0.1 1.3
v -2 0.2 1.3
v -1.3 0.1 1.3
v -1.3 0.2 1.3
v 0.7 3 -0.1
v 0.7 3.1 -0.1
v 0.8 2.8 -0.1
v 0.8 2.9 -0.1
v 1 2.8 -0.1
v 1 2.9 -0.1
v 1.1 3 -0.1
v 1.6 0.1 -0.1
v 1.6 3 -0.1
v 1.8 0.1 -0.1
v 1.8 3.1 -0.1
v 0.7 2.9 -0.2
v 0.7 3 -0.2
v 1.1 2.9 -0.2
v 1.1 3 -0.2
v -0.0999999 2.8 -1
v -0.0999999 2.9 -1
v 0.1 2.8 -1
v 0.1 2.9 -1
v -0.2 2.9 -1.1
v -0.2 3 -1.1
v -0.0999999 3 -1.1
v 0.1 3 -1.1
v 0.2 2.9 -1.1
v 0.2 3 -1.1
v -2 0.1 -1.5
v -2 0.2 -1.5
v 1.5 0.1 -1.5
v 1.5 0.2 -1.5
v -0.0999999 0.1 -1.8
v -0.0999999 3.1 -1.8
v 0.1 0.1 -1.8
v 0.1 3.1 -1.8
v -2 0 -2
v -2 0.1 -2
v 2 0 -2
v 2 0.1 -2
v -2 0 2
v -1.3 0 2
v 1.3 0 2
v 2 0 2
v -0.0999999 0 1.8
v 0.1 0 1.8
v -2 0 1.3
v -1.3 0 1.3
v -0.0999999 0 1.2
v 0.1 0 1.2
v -0.0999999 0 0.8
v 0.1 0 0.8
v -1.8 0 0.0999999
v -1.2 0 0.0999999
v -0.8 0 0.0999999
v -0.0999999 0 0.0999999
v -1.8 0 -0.1
v -1.2 0 -0.1
v -0.8 0 -0.1
v 0.1 0 -0.1
v -2 0 -1.3
v 1.3 0 -1.3
v -2 0 -2
v 2 0 -2
v 0.8 2.8 0.0999999
v 1 2.8 0.0999999
v 0.8 2.8 -0.1
v 1 2.8 -0.1
v -0.0999999 2.8 -0.8
v 0.1 2.8 -0.8
v -0.0999999 2.8 -1
v 0.1 2.8 -1
v 0.7 2.9 0.2
v 1.1 2.9 0.2
v 0.8 2.9 0.0999999
v 1 2.9 0.0999999
v 0.8 2.9 -0.1
v 1 2.9 -0.1
v 0.7 2.9 -0.2
v 1.1 2.9 -0.2
v -0.2 2.9 -0.7
v 0.2 2.9 -0.7
v -0.0999999 2.9 -0.8
v 0.1 2.9 -0.8
v -0.0999999 2.9 -1
v 0.1 2.9 -1
v -0.2 2.9 -1.1
v 0.2 2.9 -1.1
v 1.1 3 0.0999999
v 1.6 3 0.0999999
v 1.1 3 -0.1
v 1.6 3 -0.1
v -0.0999999 3 -1.1
v 0.1 3 -1.1
v -0.0999999 3 -1.6
v 0.1 3 -1.6
v -2 0.1 2
v -1.5 0.1 2
v -1.3 0.1 2
v 1.3 0.1 2
v 1.5 0.1 2
v 2 0.1 2
v -0.0999999 0.1 1.8
v 0.1 0.1 1.8
v -2 0.1 1.5
v -1.5 0.1 1.5
v -2 0.1 1.3
v -1.3 0.1 1.3
v -0.0999999 0.1 1.2
v 0.1 0.1 1.2
v -0.0999999 0.1 0.8
v 0.1 0.1 0.8
v -1.8 0.1 0.0999999
v -1.2 0.1 0.0999999
v -0.8 0.1 0.0999999
v -0.0999999 0.1 0.0999999
v 1.6 0.1 0.0999999
v 1.8 0.1 0.0999999
v -1.8 0.1 -0.1
v -1.2 0.1 -0.1
v -0.8 0.1 -0.1
v 0.1 0.1 -0.1
v 1.6 0.1 -0.1
v 1.8 0.1 -0.1
v -2 0.1 -1.3
v 1.3 0.1 -1.3
v -2 0.1 -1.5
v 1.5 0.1 -1.5
v -0.0999999 0.1 -1.6
v 0.1 0.1 -1.6
v -0.0999999 0.1 -1.8
v 0.1 0.1 -1.8
v -2 0.1 -2
v 2 0.1 -2
v -1.5 0.2 2
v -1.3 0.2 2
v 1.3 0.2 2
v 1.5 0.2 2
v -2 0.2 1.5
v -1.5 0.2 1.5
v -2 0.2 1.3
v -1.3 0.2 1.3
v -2 0.2 -1.3
v 1.3 0.2 -1.3
v -2 0.2 -1.5
v 1.5 0.2 -1.5
v 0.7 3 0.2
v 1.1 3 0.2
v 0.7 3 0.0999999
v 1.1 3 0.0999999
v 0.7 3 -0.1
v 1.1 3 -0.1
v 0.7 3 -0.2
v 1.1 3 -0.2
v -0.2 3 -0.7
v -0.0999999 3 -0.7
v 0.1 3 -0.7
v 0.2 3 -0.7
v -0.2 3 -1.1
v -0.0999999 3 -1.1
v 0.1 3 -1.1
v 0.2 3 -1.1
v 0.7 3.1 0.0999999
v 1.8 3.1 0.0999999
v 0.7 3.1 -0.1
v 1.8 3.1 -0.1
v -0.0999999 3.1 -0.7
v 0.1 3.1 -0.7
v -0.0999999 3.1 -1.8
v 0.1 3.1 -1.8

# faces
f 5/4/1 2/4/1 1/4/1
f 6/4/1 2/4/1 5/4/1
f 7/5/1 3/5/1 2/5/1
f 7/4/1 2/4/1 6/4/1
f 8/4/1 4/4/1 3/4/1
f 8/5/1 3/5/1 7/5/1
f 9/4/1 4/4/1 8/4/1
f 10/4/1 4/4/1 9/4/1
f 11/4/1 7/4/1 6/4/1
f 12/4/1 7/4/1 11/4/1
f 13/4/1 9/4/1 8/4/1
f 14/4/1 9/4/1 13/4/1
f 17/4/1 16/4/1 15/4/1
f 18/4/1 16/4/1 17/4/1
f 21/2/1 20/2/1 19/2/1
f 22/2/1 20/2/1 21/2/1
f 27/1/1 26/1/1 25/1/1
f 28/1/1 26/1/1 27/1/1
f 31/3/1 24/3/1 23/3/1
f 32/3/1 30/3/1 29/3/1
f 32/3/1 31/3/1 30/3/1
f 33/3/1 24/3/1 31/3/1
f 33/3/1 31/3/1 32/3/1
f 36/2/1 35/2/1 34/2/1
f 37/2/1 35/2/1 36/2/1
f 38/2/1 35/2/1 37/2/1
f 39/2/1 35/2/1 38/2/1
f 40/3/1 38/3/1 37/3/1
f 41/3/1 38/3/1 40/3/1
f 44/1/1 43/1/1 42/1/1
f 45/1/1 43/1/1 44/1/1
f 48/4/1 47/4/1 46/4/1
f 49/4/1 47/4/1 48/4/1
f 52/3/1 51/3/1 50/3/1
f 53/3/1 51/3/1 52/3/1
f 54/4/2 55/4/2 56/4/2
f 56/4/2 55/4/2 57/4/2
f 60/1/2 61/1/2 62/1/2
f 62/1/2 61/1/2 63/1/2
f 58/3/2 59/3/2 66/3/2
f 64/3/2 65/3/2 67/3/2
f 65/3/2 66/3/2 67/3/2
f 66/3/2 59/3/2 68/3/2
f 67/3/2 66/3/2 68/3/2
f 69/2/2 70/2/2 71/2/2
f 71/2/2 70/2/2 72/2/2
f 73/1/2 74/1/2 75/1/2
f 75/1/2 74/1/2 76/1/2
f 77/2/2 78/2/2 79/2/2
f 79/2/2 78/2/2 80/2/2
f 80/2/2 78/2/2 81/2/2
f 81/2/2 78/2/2 82/2/2
f 83/4/2 84/4/2 85/4/2
f 85/4/2 84/4/2 86/4/2
f 87/3/2 88/3/2 89/3/2
f 89/3/2 88/3/2 90/3/2
f 91/4/2 92/4/2 93/4/2
f 93/4/2 92/4/2 94/4/2
f 97/4/3 96/4/3 95/4/3
f 99/4/3 97/4/3 95/4/3
f 99/4/3 98/4/3 97/4/3
f 100/4/3 98/4/3 99/4/3
f 101/4/3 98/4/3 100/4/3
f 102/5/3 100/5/3 99/5/3
f 103/5/3 100/5/3 102/5/3
f 105/4/3 103/4/3 102/4/3
f 105/4/3 104/4/3 103/4/3
f 106/4/3 104/4/3 105/4/3
f 107/4/3 105/4/3 102/4/3
f 108/4/3 105/4/3 107/4/3
f 111/4/3 110/4/3 109/4/3
f 112/4/3 110/4/3 111/4/3
f 115/2/3 114/2/3 113/2/3
f 116/2/3 114/2/3 115/2/3
f 121/1/3 120/1/3 119/1/3
f 122/1/3 120/1/3 121/1/3
f 123/3/3 118/3/3 117/3/3
f 125/3/3 118/3/3 123/3/3
f 126/3/3 125/3/3 124/3/3
f 127/3/3 118/3/3 125/3/3
f 127/3/3 125/3/3 126/3/3
f 130/2/3 129/2/3 128/2/3
f 132/2/3 130/2/3 128/2/3
f 132/3/3 131/3/3 130/3/3
f 133/3/3 131/3/3 132/3/3
f 134/2/3 132/2/3 128/2/3
f 135/2/3 132/2/3 134/2/3
f 138/1/3 137/1/3 136/1/3
f 139/1/3 137/1/3 138/1/3
f 142/4/3 141/4/3 140/4/3
f 143/4/3 141/4/3 142/4/3
f 146/3/3 145/3/3 144/3/3
f 147/3/3 145/3/3 146/3/3
f 148/4/4 149/4/4 150/4/4
f 150/4/4 149/4/4 151/4/4
f 154/1/4 155/1/4 156/1/4
f 156/1/4 155/1/4 157/1/4
f 152/3/4 153/3/4 158/3/4
f 158/3/4 153/3/4 160/3/4
f 159/3/4 160/3/4 161/3/4
f 160/3/4 153/3/4 162/3/4
f 161/3/4 160/3/4 162/3/4
f 163/2/4 164/2/4 165/2/4
f 165/2/4 164/2/4 166/2/4
f 167/1/4 168/1/4 169/1/4
f 169/1/4 168/1/4 170/1/4
f 171/2/4 172/2/4 173/2/4
f 171/2/4 173/2/4 174/2/4
f 171/2/4 174/2/4 175/2/4
f 175/2/4 174/2/4 176/2/4
f 177/4/4 178/4/4 179/4/4
f 179/4/4 178/4/4 180/4/4
f 181/3/4 182/3/4 183/3/4
f 183/3/4 182/3/4 184/3/4
f 185/4/4 186/4/4 187/4/4
f 187/4/4 186/4/4 188/4/4
f 193/5/5 191/5/5 190/5/5
f 194/5/5 191/5/5 193/5/5
f 195/4/5 190/4/5 189/4/5
f 196/5/5 193/5/5 190/5/5
f 196/4/5 190/4/5 195/4/5
f 197/4/5 194/4/5 193/4/5
f 197/5/5 193/5/5 196/5/5
f 197/5/5 196/5/5 195/5/5
f 198/5/5 191/5/5 194/5/5
f 198/4/5 194/4/5 197/4/5
f 199/5/5 197/5/5 195/5/5
f 199/5/5 198/5/5 197/5/5
f 200/5/5 191/5/5 198/5/5
f 200/5/5 198/5/5 199/5/5
f 201/5/5 199/5/5 195/5/5
f 202/5/5 199/5/5 201/5/5
f 203/5/5 199/5/5 202/5/5
f 204/4/5 200/4/5 199/4/5
f 204/5/5 199/5/5 203/5/5
f 205/5/5 201/5/5 195/5/5
f 205/4/5 202/4/5 201/4/5
f 206/5/5 203/5/5 202/5/5
f 206/4/5 202/4/5 205/4/5
f 207/4/5 204/4/5 203/4/5
f 207/5/5 203/5/5 206/5/5
f 208/5/5 191/5/5 200/5/5
f 208/4/5 204/4/5 207/4/5
f 208/4/5 200/4/5 204/4/5
f 209/5/5 207/5/5 206/5/5
f 209/5/5 205/5/5 195/5/5
f 209/5/5 208/5/5 207/5/5
f 209/5/5 206/5/5 205/5/5
f 210/5/5 191/5/5 208/5/5
f 210/5/5 208/5/5 209/5/5
f 210/4/5 192/4/5 191/4/5
f 211/4/5 210/4/5 209/4/5
f 212/4/5 192/4/5 210/4/5
f 212/4/5 210/4/5 211/4/5
f 215/1/5 214/1/5 213/1/5
f 216/1/5 214/1/5 215/1/5
f 219/1/5 218/1/5 217/1/5
f 220/1/5 218/1/5 219/1/5
f 223/2/5 222/2/5 221/2/5
f 224/2/5 222/2/5 223/2/5
f 225/2/5 223/2/5 221/2/5
f 226/2/5 222/2/5 224/2/5
f 227/2/5 225/2/5 221/2/5
f 227/2/5 226/2/5 225/2/5
f 228/2/5 222/2/5 226/2/5
f 228/2/5 226/2/5 227/2/5
f 231/2/5 230/2/5 229/2/5
f 232/2/5 230/2/5 231/2/5
f 233/2/5 231/2/5 229/2/5
f 234/2/5 230/2/5 232/2/5
f 235/2/5 233/2/5 229/2/5
f 235/2/5 234/2/5 233/2/5
f 236/2/5 230/2/5 234/2/5
f 236/2/5 234/2/5 235/2/5
f 239/3/5 238/3/5 237/3/5
f 240/3/5 238/3/5 239/3/5
f 243/3/5 242/3/5 241/3/5
f 244/3/5 242/3/5 243/3/5
f 247/5/6 248/5/6 251/5/6
f 251/5/6 248/5/6 252/5/6
f 245/4/6 246/4/6 253/4/6
f 253/4/6 246/4/6 254/4/6
f 247/5/6 251/5/6 256/5/6
f 251/4/6 252/4/6 257/4/6
f 255/5/6 256/5/6 257/5/6
f 256/5/6 251/5/6 257/5/6
f 252/5/6 248/5/6 258/5/6
f 257/4/6 252/4/6 258/4/6
f 255/5/6 257/5/6 259/5/6
f 257/5/6 258/5/6 259/5/6
f 258/5/6 248/5/6 260/5/6
f 259/5/6 258/5/6 260/5/6
f 255/5/6 259/5/6 261/5/6
f 261/5/6 259/5/6 262/5/6
f 262/5/6 259/5/6 263/5/6
f 259/4/6 260/4/6 264/4/6
f 263/5/6 259/5/6 264/5/6
f 249/4/6 250/4/6 265/4/6
f 265/4/6 250/4/6 266/4/6
f 255/5/6 261/5/6 267/5/6
f 261/4/6 262/4/6 267/4/6
f 262/5/6 263/5/6 268/5/6
f 267/4/6 262/4/6 268/4/6
f 263/4/6 264/4/6 269/4/6
f 268/5/6 263/5/6 269/5/6
f 260/5/6 248/5/6 270/5/6
f 269/4/6 264/4/6 270/4/6
f 264/4/6 260/4/6 270/4/6
f 249/4/6 265/4/6 271/4/6
f 266/4/6 250/4/6 272/4/6
f 268/5/6 269/5/6 273/5/6
f 267/5/6 268/5/6 273/5/6
f 255/5/6 267/5/6 273/5/6
f 269/5/6 270/5/6 273/5/6
f 270/5/6 248/5/6 274/5/6
f 273/5/6 270/5/6 274/5/6
f 271/4/6 272/4/6 276/4/6
f 249/4/6 271/4/6 276/4/6
f 275/4/6 276/4/6 277/4/6
f 277/4/6 276/4/6 278/4/6
f 275/4/6 277/4/6 279/4/6
f 278/4/6 276/4/6 280/4/6
f 275/4/6 279/4/6 281/4/6
f 279/4/6 280/4/6 281/4/6
f 272/4/6 250/4/6 282/4/6
f 281/4/6 280/4/6 282/4/6
f 276/4/6 272/4/6 282/4/6
f 280/4/6 276/4/6 282/4/6
f 283/4/6 284/4/6 288/4/6
f 287/4/6 288/4/6 289/4/6
f 288/4/6 284/4/6 290/4/6
f 289/4/6 288/4/6 290/4/6
f 285/4/6 286/4/6 292/4/6
f 291/4/6 292/4/6 293/4/6
f 292/4/6 286/4/6 294/4/6
f 293/4/6 292/4/6 294/4/6
f 295/2/6 296/2/6 297/2/6
f 297/2/6 296/2/6 298/2/6
f 299/2/6 300/2/6 301/2/6
f 301/2/6 300/2/6 302/2/6
f 303/2/6 304/2/6 307/2/6
f 307/2/6 304/2/6 308/2/6
f 305/2/6 306/2/6 309/2/6
f 309/2/6 306/2/6 310/2/6
f 311/3/6 312/3/6 313/3/6
f 313/3/6 312/3/6 314/3/6
f 315/3/6 316/3/6 317/3/6
f 317/3/6 316/3/6 318/3/6
